<svg width="200" height="60" data-name="Layer 1" xmlns="http://www.w3.org/2000/svg" viewBox="0 0 282.94 73.21"><title>Poplatek-Logo</title><path d="M100.02 21.11a15.66 15.66 0 1 1-15.66 15.65 15.48 15.48 0 0 1 15.66-15.65m0 25.56c6.07 0 9.27-4.47 9.27-9.91s-3.2-9.9-9.27-9.9-9.27 4.47-9.27 9.9 3.2 9.91 9.27 9.91m20.15-24.92h5.75l.58 2.55.38.33.32-.33a12.13 12.13 0 0 1 8.3-3.19 15.22 15.22 0 0 1 15.34 15.66 15.22 15.22 0 0 1-15.34 15.66 12.25 12.25 0 0 1-8.3-3.2l-.32-.32-.38.32v16.11h-6.33V21.75m15 24.92c6.07 0 9.27-4.47 9.27-9.9s-3.2-9.91-9.27-9.91c-5.44 0-9.27 4.48-9.27 9.91s3.83 9.9 9.27 9.9M49.48 21.75h5.76l.57 2.55.39.33.31-.33a12.15 12.15 0 0 1 8.31-3.19 15.22 15.22 0 0 1 15.34 15.66 15.22 15.22 0 0 1-15.34 15.66 12.27 12.27 0 0 1-8.31-3.2l-.31-.32-.39.32v16.11h-6.33V21.75m15 24.92c6.07 0 9.27-4.47 9.27-9.9s-3.2-9.91-9.27-9.91c-5.43 0-9.26 4.48-9.26 9.91s3.83 9.9 9.26 9.9m134.05 5.12h-5.76l-.64-2.56-.31-.32-.33.32a12.14 12.14 0 0 1-8.31 3.2 15.21 15.21 0 0 1-15.33-15.66 15.21 15.21 0 0 1 15.33-15.66 12.18 12.18 0 0 1 8.31 3.19l.33.32.31-.32.64-2.55h5.76v30m-15-24.93c-6.07 0-9.33 4.47-9.33 9.91s3.26 9.9 9.33 9.9c5.44 0 9.27-4.47 9.27-9.9s-3.83-9.91-9.27-9.91m33.87 24.96c-6.19-.1-9.53-3.29-9.53-8.94V27.5h-4.83v-5.75h4.83v-6.4l5-6.39h1.22v12.79h5.64v5.75h-5.64v15.34a3.07 3.07 0 0 0 3.26 3.2M155.37 3.21h6.29v39.63a3.07 3.07 0 0 0 3.25 3.2v5.74c-6.18-.1-9.52-3.29-9.52-8.94V3.21m73.03 35.15c0 4.48 3.19 8.31 8.63 8.31 3.83 0 6.45-1.91 7.41-4.47l5.37 2.56a14.68 14.68 0 0 1-13.1 7.67c-8 0-14.7-6.39-14.7-15.67s6.39-15.65 14.7-15.65c7.66 0 14.06 6.07 14.06 15.33l-.13 1.92h-22.24m.32-5.62h15.34c-.32-3.33-3.52-5.88-7.35-5.88a7.75 7.75 0 0 0-8 5.88m26.72-29.53v48.58h6.39V39l12.78 12.79h8.32l-15.09-15.6 14.44-14.44h-8.31l-12.14 12.14V3.21h-6.39" fill="#fff"/><path d="M5.43 72.06a3.93 3.93 0 1 1 5.56 0 3.94 3.94 0 0 1-5.56 0M4.42 54.35a5.36 5.36 0 1 1 7.59 0 5.37 5.37 0 0 1-7.59 0M3.41 35.01a6.79 6.79 0 1 1 9.6 0 6.79 6.79 0 0 1-9.6 0M2.4 14.03a8.22 8.22 0 1 1 11.63 0 8.23 8.23 0 0 1-11.63 0" fill="#2ea56f"/></svg>